# xmcd
#
# Track frame offsets: 
#        150
#        17480
#        31940
#        41737
#        57275
#        68485
#        92522
#        104902
#        127985
#        148675
#        173007
#        187602
#        213345
#
# Disc length: 4066 seconds
#
# Revision: 2
# Processed by: cddbd v1.5.2PL0 Copyright (c) Steve Scherf et al.
# Submitted via: ExactAudioCopy v0.99pb5
#
DISCID=a70fe00d
DTITLE=Andreas Vollenweider - Caverna Magica
DYEAR=1983
DGENRE=New Age
TTITLE0=Caverna Magica
TTITLE1=Mandragora
TTITLE2=Lunar Pond
TTITLE3=Schajah Saretosh
TTITLE4=Sera Stanjéna?
TTITLE5=Belladonna
TTITLE6=Angóh!
TTITLE7=Huiziopochtli - Con Chiglia
TTITLE8=Geastrum Coronatum - La Paix Verde
TTITLE9=Pace Verde (The Green Peace, Single 1983)(Bonus)
TTITLE10=Rilaex (Live At The Carré Amsterdam 1982)(Bonus)
TTITLE11=Hey You! Yes, You... (Edit From The Album Vox, 2004)(Bonus)
TTITLE12=Video- Pace Verde
EXTD=
EXTT0=
EXTT1=
EXTT2=
EXTT3=
EXTT4=
EXTT5=
EXTT6=
EXTT7=
EXTT8=
EXTT9=
EXTT10=
EXTT11=
EXTT12=
PLAYORDER=
